<svg width="215" height="95" viewBox="0 0 215 95" fill="none" xmlns="http://www.w3.org/2000/svg"><path d="M5 2.5a2.5 2.5 0 11-5 0 2.5 2.5 0 015 0zM35 2.5a2.5 2.5 0 11-5 0 2.5 2.5 0 015 0zM65 2.5a2.5 2.5 0 11-5 0 2.5 2.5 0 015 0zM95 2.5a2.5 2.5 0 11-5 0 2.5 2.5 0 015 0zM125 2.5a2.5 2.5 0 11-5 0 2.5 2.5 0 015 0zM155 2.5a2.5 2.5 0 11-5 0 2.5 2.5 0 015 0zM185 2.5a2.5 2.5 0 11-5 0 2.5 2.5 0 015 0zM215 2.5a2.5 2.5 0 11-5 0 2.5 2.5 0 015 0zM5 32.5a2.5 2.5 0 11-5 0 2.5 2.5 0 015 0zM35 32.5a2.5 2.5 0 11-5 0 2.5 2.5 0 015 0zM65 32.5a2.5 2.5 0 11-5 0 2.5 2.5 0 015 0zM95 32.5a2.5 2.5 0 11-5 0 2.5 2.5 0 015 0zM125 32.5a2.5 2.5 0 11-5 0 2.5 2.5 0 015 0zM155 32.5a2.5 2.5 0 11-5 0 2.5 2.5 0 015 0zM185 32.5a2.5 2.5 0 11-5 0 2.5 2.5 0 015 0zM215 32.5a2.5 2.5 0 11-5 0 2.5 2.5 0 015 0zM5 62.5a2.5 2.5 0 11-5 0 2.5 2.5 0 015 0zM35 62.5a2.5 2.5 0 11-5 0 2.5 2.5 0 015 0zM65 62.5a2.5 2.5 0 11-5 0 2.5 2.5 0 015 0zM95 62.5a2.5 2.5 0 11-5 0 2.5 2.5 0 015 0zM125 62.5a2.5 2.5 0 11-5 0 2.5 2.5 0 015 0zM155 62.5a2.5 2.5 0 11-5 0 2.5 2.5 0 015 0zM185 62.5a2.5 2.5 0 11-5 0 2.5 2.5 0 015 0zM215 62.5a2.5 2.5 0 11-5 0 2.5 2.5 0 015 0zM5 92.5a2.5 2.5 0 11-5 0 2.5 2.5 0 015 0zM35 92.5a2.5 2.5 0 11-5 0 2.5 2.5 0 015 0zM65 92.5a2.5 2.5 0 11-5 0 2.5 2.5 0 015 0zM95 92.5a2.5 2.5 0 11-5 0 2.5 2.5 0 015 0zM125 92.5a2.5 2.5 0 11-5 0 2.5 2.5 0 015 0zM155 92.5a2.5 2.5 0 11-5 0 2.5 2.5 0 015 0zM185 92.5a2.5 2.5 0 11-5 0 2.5 2.5 0 015 0zM215 92.5a2.5 2.5 0 11-5 0 2.5 2.5 0 015 0z" fill="#B1B1B1"/></svg>