<svg width="180" height="180" viewBox="0 0 180 180" fill="none" xmlns="http://www.w3.org/2000/svg">
<g clip-path="url(#clip0_2_5)">
<circle cx="2" cy="2" r="2" fill="#A5C3FD"/>
<circle cx="26" cy="2" r="2" fill="#A5C3FD"/>
<circle cx="50" cy="2" r="2" fill="#A5C3FD"/>
<circle cx="74" cy="2" r="2" fill="#A5C3FD"/>
<circle cx="98" cy="2" r="2" fill="#A5C3FD"/>
<circle cx="122" cy="2" r="2" fill="#A5C3FD"/>
<circle cx="146" cy="2" r="2" fill="#A5C3FD"/>
<circle cx="170" cy="2" r="2" fill="#A5C3FD"/>
<circle cx="2" cy="26" r="2" fill="#A5C3FD"/>
<circle cx="26" cy="26" r="2" fill="#A5C3FD"/>
<circle cx="50" cy="26" r="2" fill="#A5C3FD"/>
<circle cx="74" cy="26" r="2" fill="#A5C3FD"/>
<circle cx="98" cy="26" r="2" fill="#A5C3FD"/>
<circle cx="122" cy="26" r="2" fill="#A5C3FD"/>
<circle cx="146" cy="26" r="2" fill="#A5C3FD"/>
<circle cx="170" cy="26" r="2" fill="#A5C3FD"/>
<circle cx="2" cy="50" r="2" fill="#A5C3FD"/>
<circle cx="26" cy="50" r="2" fill="#A5C3FD"/>
<circle cx="50" cy="50" r="2" fill="#A5C3FD"/>
<circle cx="74" cy="50" r="2" fill="#A5C3FD"/>
<circle cx="98" cy="50" r="2" fill="#A5C3FD"/>
<circle cx="122" cy="50" r="2" fill="#A5C3FD"/>
<circle cx="146" cy="50" r="2" fill="#A5C3FD"/>
<circle cx="170" cy="50" r="2" fill="#A5C3FD"/>
<circle cx="2" cy="74" r="2" fill="#A5C3FD"/>
<circle cx="26" cy="74" r="2" fill="#A5C3FD"/>
<circle cx="50" cy="74" r="2" fill="#A5C3FD"/>
<circle cx="74" cy="74" r="2" fill="#A5C3FD"/>
<circle cx="98" cy="74" r="2" fill="#A5C3FD"/>
<circle cx="122" cy="74" r="2" fill="#A5C3FD"/>
<circle cx="146" cy="74" r="2" fill="#A5C3FD"/>
<circle cx="170" cy="74" r="2" fill="#A5C3FD"/>
<circle cx="2" cy="98" r="2" fill="#A5C3FD"/>
<circle cx="26" cy="98" r="2" fill="#A5C3FD"/>
<circle cx="50" cy="98" r="2" fill="#A5C3FD"/>
<circle cx="74" cy="98" r="2" fill="#A5C3FD"/>
<circle cx="98" cy="98" r="2" fill="#A5C3FD"/>
<circle cx="122" cy="98" r="2" fill="#A5C3FD"/>
<circle cx="146" cy="98" r="2" fill="#A5C3FD"/>
<circle cx="170" cy="98" r="2" fill="#A5C3FD"/>
<circle cx="2" cy="122" r="2" fill="#A5C3FD"/>
<circle cx="26" cy="122" r="2" fill="#A5C3FD"/>
<circle cx="50" cy="122" r="2" fill="#A5C3FD"/>
<circle cx="74" cy="122" r="2" fill="#A5C3FD"/>
<circle cx="98" cy="122" r="2" fill="#A5C3FD"/>
<circle cx="122" cy="122" r="2" fill="#A5C3FD"/>
<circle cx="146" cy="122" r="2" fill="#A5C3FD"/>
<circle cx="170" cy="122" r="2" fill="#A5C3FD"/>
<circle cx="2" cy="146" r="2" fill="#A5C3FD"/>
<circle cx="26" cy="146" r="2" fill="#A5C3FD"/>
<circle cx="50" cy="146" r="2" fill="#A5C3FD"/>
<circle cx="74" cy="146" r="2" fill="#A5C3FD"/>
<circle cx="98" cy="146" r="2" fill="#A5C3FD"/>
<circle cx="122" cy="146" r="2" fill="#A5C3FD"/>
<circle cx="146" cy="146" r="2" fill="#A5C3FD"/>
<circle cx="170" cy="146" r="2" fill="#A5C3FD"/>
<circle cx="2" cy="170" r="2" fill="#A5C3FD"/>
<circle cx="26" cy="170" r="2" fill="#A5C3FD"/>
<circle cx="50" cy="170" r="2" fill="#A5C3FD"/>
<circle cx="74" cy="170" r="2" fill="#A5C3FD"/>
<circle cx="98" cy="170" r="2" fill="#A5C3FD"/>
<circle cx="122" cy="170" r="2" fill="#A5C3FD"/>
<circle cx="146" cy="170" r="2" fill="#A5C3FD"/>
<circle cx="170" cy="170" r="2" fill="#A5C3FD"/>
</g>
<defs>
<clipPath id="clip0_2_5">
<rect width="180" height="180" fill="white"/>
</clipPath>
</defs>
</svg>
