<svg width="176" height="385" viewBox="0 0 176 385" fill="none" xmlns="http://www.w3.org/2000/svg"><path d="M21.46 269.5L1.38 284.6l20.08 13.53-20.08 15.1 20.08 13.52-20.08 15.1 20.08 13.53-20.08 15.1L21.46 384" stroke="#A5C3FD"/><path d="M7.02 2a2 2 0 11-4 0 2 2 0 014 0zM31.07 2a2 2 0 11-4 0 2 2 0 014 0zM55.12 2a2 2 0 11-4 0 2 2 0 014 0zM79.17 2a2 2 0 11-4 0 2 2 0 014 0zM103.23 2a2 2 0 11-4 0 2 2 0 014 0zM127.28 2a2 2 0 11-4 0 2 2 0 014 0zM151.33 2a2 2 0 11-4 0 2 2 0 014 0zM175.38 2a2 2 0 11-4 0 2 2 0 014 0zM7.02 25.99a2 2 0 11-4-.01 2 2 0 014 0zM31.07 25.99a2 2 0 11-4-.01 2 2 0 014 0zM55.12 25.99a2 2 0 11-4-.01 2 2 0 014 0zM79.17 25.99a2 2 0 11-4-.01 2 2 0 014 0zM103.23 25.99a2 2 0 11-4 0 2 2 0 014 0zM127.28 25.99a2 2 0 11-4 0 2 2 0 014 0zM151.33 25.99a2 2 0 11-4-.01 2 2 0 014 0zM175.38 25.99a2 2 0 11-4-.01 2 2 0 014 0zM7.02 49.97a2 2 0 11-4 0 2 2 0 014 0zM31.07 49.97a2 2 0 11-4 0 2 2 0 014 0zM55.12 49.97a2 2 0 11-4 0 2 2 0 014 0zM79.17 49.97a2 2 0 11-4 0 2 2 0 014 0zM103.23 49.97a2 2 0 11-4 0 2 2 0 014 0zM127.28 49.97a2 2 0 11-4 0 2 2 0 014 0zM151.33 49.97a2 2 0 11-4 0 2 2 0 014 0zM175.38 49.97a2 2 0 11-4 0 2 2 0 014 0zM7.02 73.96a2 2 0 11-4 0 2 2 0 014 0zM31.07 73.96a2 2 0 11-4 0 2 2 0 014 0zM55.12 73.96a2 2 0 11-4 0 2 2 0 014 0zM79.17 73.96a2 2 0 11-4 0 2 2 0 014 0zM103.23 73.96a2 2 0 11-4 0 2 2 0 014 0zM127.28 73.96a2 2 0 11-4 0 2 2 0 014 0zM151.33 73.96a2 2 0 11-4 0 2 2 0 014 0zM175.38 73.96a2 2 0 11-4 0 2 2 0 014 0zM7.02 97.95a2 2 0 11-4-.01 2 2 0 014 0zM31.07 97.95a2 2 0 11-4-.01 2 2 0 014 0zM55.12 97.95a2 2 0 11-4-.01 2 2 0 014 0zM79.17 97.95a2 2 0 11-4-.01 2 2 0 014 0zM103.23 97.95a2 2 0 11-4-.01 2 2 0 014 0zM127.28 97.95a2 2 0 11-4-.01 2 2 0 014 0zM151.33 97.95a2 2 0 11-4-.01 2 2 0 014 0zM175.38 97.95a2 2 0 11-4-.01 2 2 0 014 0zM7.02 121.93a2 2 0 11-4 0 2 2 0 014 0zM31.07 121.93a2 2 0 11-4 0 2 2 0 014 0zM55.12 121.93a2 2 0 11-4 0 2 2 0 014 0zM79.17 121.93a2 2 0 11-4 0 2 2 0 014 0zM103.23 121.93a2 2 0 11-4 0 2 2 0 014 0zM127.28 121.93a2 2 0 11-4 0 2 2 0 014 0zM151.33 121.93a2 2 0 11-4 0 2 2 0 014 0zM175.38 121.93a2 2 0 11-4 0 2 2 0 014 0zM7.02 145.92a2 2 0 11-4 0 2 2 0 014 0zM31.07 145.92a2 2 0 11-4 0 2 2 0 014 0zM55.12 145.92a2 2 0 11-4 0 2 2 0 014 0zM79.17 145.92a2 2 0 11-4 0 2 2 0 014 0zM103.23 145.92a2 2 0 11-4 0 2 2 0 014 0zM127.28 145.92a2 2 0 11-4 0 2 2 0 014 0zM151.33 145.92a2 2 0 11-4 0 2 2 0 014 0zM175.38 145.92a2 2 0 11-4 0 2 2 0 014 0zM7.02 169.9a2 2 0 11-4 0 2 2 0 014 0zM31.07 169.9a2 2 0 11-4 0 2 2 0 014 0zM55.12 169.9a2 2 0 11-4 0 2 2 0 014 0zM79.17 169.9a2 2 0 11-4 0 2 2 0 014 0zM103.23 169.9a2 2 0 11-4 0 2 2 0 014 0zM127.28 169.9a2 2 0 11-4 0 2 2 0 014 0zM151.33 169.9a2 2 0 11-4 0 2 2 0 014 0zM175.38 169.9a2 2 0 11-4 0 2 2 0 014 0z" fill="#A5C3FD"/></svg>