<svg width="215" height="95" viewBox="0 0 215 95" fill="none" xmlns="http://www.w3.org/2000/svg">
<g clip-path="url(#clip0_8_83)">
<circle cx="2.5" cy="2.5" r="2.5" fill="#B1B1B1"/>
<circle cx="32.5" cy="2.5" r="2.5" fill="#B1B1B1"/>
<circle cx="62.5" cy="2.5" r="2.5" fill="#B1B1B1"/>
<circle cx="92.5" cy="2.5" r="2.5" fill="#B1B1B1"/>
<circle cx="122.5" cy="2.5" r="2.5" fill="#B1B1B1"/>
<circle cx="152.5" cy="2.5" r="2.5" fill="#B1B1B1"/>
<circle cx="182.5" cy="2.5" r="2.5" fill="#B1B1B1"/>
<circle cx="212.5" cy="2.5" r="2.5" fill="#B1B1B1"/>
<circle cx="2.5" cy="32.5" r="2.5" fill="#B1B1B1"/>
<circle cx="32.5" cy="32.5" r="2.5" fill="#B1B1B1"/>
<circle cx="62.5" cy="32.5" r="2.5" fill="#B1B1B1"/>
<circle cx="92.5" cy="32.5" r="2.5" fill="#B1B1B1"/>
<circle cx="122.5" cy="32.5" r="2.5" fill="#B1B1B1"/>
<circle cx="152.5" cy="32.5" r="2.5" fill="#B1B1B1"/>
<circle cx="182.5" cy="32.5" r="2.5" fill="#B1B1B1"/>
<circle cx="212.5" cy="32.5" r="2.5" fill="#B1B1B1"/>
<circle cx="2.5" cy="62.5" r="2.5" fill="#B1B1B1"/>
<circle cx="32.5" cy="62.5" r="2.5" fill="#B1B1B1"/>
<circle cx="62.5" cy="62.5" r="2.5" fill="#B1B1B1"/>
<circle cx="92.5" cy="62.5" r="2.5" fill="#B1B1B1"/>
<circle cx="122.5" cy="62.5" r="2.5" fill="#B1B1B1"/>
<circle cx="152.5" cy="62.5" r="2.5" fill="#B1B1B1"/>
<circle cx="182.5" cy="62.5" r="2.5" fill="#B1B1B1"/>
<circle cx="212.5" cy="62.5" r="2.5" fill="#B1B1B1"/>
<circle cx="2.5" cy="92.5" r="2.5" fill="#B1B1B1"/>
<circle cx="32.5" cy="92.5" r="2.5" fill="#B1B1B1"/>
<circle cx="62.5" cy="92.5" r="2.5" fill="#B1B1B1"/>
<circle cx="92.5" cy="92.5" r="2.5" fill="#B1B1B1"/>
<circle cx="122.5" cy="92.5" r="2.5" fill="#B1B1B1"/>
<circle cx="152.5" cy="92.5" r="2.5" fill="#B1B1B1"/>
<circle cx="182.5" cy="92.5" r="2.5" fill="#B1B1B1"/>
<circle cx="212.5" cy="92.5" r="2.5" fill="#B1B1B1"/>
</g>
<defs>
<clipPath id="clip0_8_83">
<rect width="215" height="95" fill="white"/>
</clipPath>
</defs>
</svg>
