<svg width="173" height="172" viewBox="0 0 173 172" fill="none" xmlns="http://www.w3.org/2000/svg"><path d="M4 2a2 2 0 11-4 0 2 2 0 014 0zM28 2a2 2 0 11-4 0 2 2 0 014 0zM52 2a2 2 0 11-4 0 2 2 0 014 0zM76 2a2 2 0 11-4 0 2 2 0 014 0zM100 2a2 2 0 11-4 0 2 2 0 014 0zM124 2a2 2 0 11-4 0 2 2 0 014 0zM148 2a2 2 0 11-4 0 2 2 0 014 0zM172 2a2 2 0 11-4 0 2 2 0 014 0zM4 26a2 2 0 11-4 0 2 2 0 014 0zM28 26a2 2 0 11-4 0 2 2 0 014 0zM52 26a2 2 0 11-4 0 2 2 0 014 0zM76 26a2 2 0 11-4 0 2 2 0 014 0zM100 26a2 2 0 11-4 0 2 2 0 014 0zM124 26a2 2 0 11-4 0 2 2 0 014 0zM148 26a2 2 0 11-4 0 2 2 0 014 0zM172 26a2 2 0 11-4 0 2 2 0 014 0zM4 50a2 2 0 11-4 0 2 2 0 014 0zM28 50a2 2 0 11-4 0 2 2 0 014 0zM52 50a2 2 0 11-4 0 2 2 0 014 0zM76 50a2 2 0 11-4 0 2 2 0 014 0zM100 50a2 2 0 11-4 0 2 2 0 014 0zM124 50a2 2 0 11-4 0 2 2 0 014 0zM148 50a2 2 0 11-4 0 2 2 0 014 0zM172 50a2 2 0 11-4 0 2 2 0 014 0zM4 74a2 2 0 11-4 0 2 2 0 014 0zM28 74a2 2 0 11-4 0 2 2 0 014 0zM52 74a2 2 0 11-4 0 2 2 0 014 0zM76 74a2 2 0 11-4 0 2 2 0 014 0zM100 74a2 2 0 11-4 0 2 2 0 014 0zM124 74a2 2 0 11-4 0 2 2 0 014 0zM148 74a2 2 0 11-4 0 2 2 0 014 0zM172 74a2 2 0 11-4 0 2 2 0 014 0zM4 98a2 2 0 11-4 0 2 2 0 014 0zM28 98a2 2 0 11-4 0 2 2 0 014 0zM52 98a2 2 0 11-4 0 2 2 0 014 0zM76 98a2 2 0 11-4 0 2 2 0 014 0zM100 98a2 2 0 11-4 0 2 2 0 014 0zM124 98a2 2 0 11-4 0 2 2 0 014 0zM148 98a2 2 0 11-4 0 2 2 0 014 0zM172 98a2 2 0 11-4 0 2 2 0 014 0zM4 122a2 2 0 11-4 0 2 2 0 014 0zM28 122a2 2 0 11-4 0 2 2 0 014 0zM52 122a2 2 0 11-4 0 2 2 0 014 0zM76 122a2 2 0 11-4 0 2 2 0 014 0zM100 122a2 2 0 11-4 0 2 2 0 014 0zM124 122a2 2 0 11-4 0 2 2 0 014 0zM148 122a2 2 0 11-4 0 2 2 0 014 0zM172 122a2 2 0 11-4 0 2 2 0 014 0zM4 146a2 2 0 11-4 0 2 2 0 014 0zM28 146a2 2 0 11-4 0 2 2 0 014 0zM52 146a2 2 0 11-4 0 2 2 0 014 0zM76 146a2 2 0 11-4 0 2 2 0 014 0zM100 146a2 2 0 11-4 0 2 2 0 014 0zM124 146a2 2 0 11-4 0 2 2 0 014 0zM148 146a2 2 0 11-4 0 2 2 0 014 0zM172 146a2 2 0 11-4 0 2 2 0 014 0zM4 170a2 2 0 11-4 0 2 2 0 014 0zM28 170a2 2 0 11-4 0 2 2 0 014 0zM52 170a2 2 0 11-4 0 2 2 0 014 0zM76 170a2 2 0 11-4 0 2 2 0 014 0zM100 170a2 2 0 11-4 0 2 2 0 014 0zM124 170a2 2 0 11-4 0 2 2 0 014 0zM148 170a2 2 0 11-4 0 2 2 0 014 0zM172 170a2 2 0 11-4 0 2 2 0 014 0z" fill="#A5C3FD"/></svg>